<?xml version="1.0" encoding="UTF-8"?><svg id="Layer_1" xmlns="http://www.w3.org/2000/svg" viewBox="0 0 355.29 119.95"><defs><style>.cls-1{fill:#f2cd49;}.cls-1,.cls-2,.cls-3{stroke-width:0px;}.cls-2{fill:#171616;}.cls-3{fill:#171515;}</style></defs><rect class="cls-1" x="32.55" y="42.07" width="32.81" height="32.81"/><path class="cls-2" d="M49.95,51.43h-2v-4.41h2v4.41ZM49.95,65.51h-2v4.41h2v-4.41ZM60.4,57.47h-4.41v2h4.41v-2ZM41.92,57.47h-4.41v2h4.41v-2ZM57.72,51.06l-1.41-1.42-3.14,3.1,1.41,1.42,3.14-3.1ZM44.57,64.05l-1.41-1.42-3.14,3.1,1.41,1.42,3.14-3.1ZM57.63,65.83l-3.1-3.14-1.42,1.41,3.1,3.14,1.42-1.41ZM44.64,52.68l-3.1-3.14-1.42,1.41,3.1,3.14,1.42-1.41ZM53.2,58.47c0-2.34-1.9-4.24-4.24-4.24s-4.24,1.9-4.24,4.24,1.9,4.24,4.24,4.24,4.24-1.9,4.24-4.24ZM51.2,58.47c0,1.24-1.01,2.24-2.24,2.24s-2.24-1.01-2.24-2.24,1.01-2.24,2.24-2.24,2.24,1.01,2.24,2.24Z"/><path class="cls-3" d="M80.37,68.67c.8.62,1.6,1.08,2.42,1.38.81.3,1.63.45,2.44.45,1.03,0,1.83-.23,2.42-.69.58-.46.88-1.1.88-1.91,0-.71-.23-1.32-.69-1.83-.46-.51-1.1-.96-1.91-1.33-.82-.37-1.77-.75-2.87-1.14-1.1-.42-2.19-.93-3.27-1.51-1.08-.58-1.97-1.35-2.66-2.31-.69-.96-1.04-2.16-1.04-3.61s.38-2.73,1.14-3.72c.76-.99,1.79-1.73,3.08-2.21,1.29-.48,2.68-.72,4.17-.72,1.35,0,2.61.2,3.8.58s2.26.9,3.21,1.54,1.77,1.36,2.44,2.18l-3.19,3.4c-.82-.96-1.79-1.74-2.92-2.34-1.13-.6-2.3-.9-3.51-.9-.82,0-1.49.18-2.02.53-.53.35-.8.87-.8,1.54,0,.57.24,1.07.72,1.51.48.44,1.12.84,1.91,1.2s1.69.73,2.68,1.12c1.35.53,2.58,1.12,3.72,1.75,1.13.64,2.04,1.42,2.74,2.34.69.92,1.04,2.12,1.04,3.61,0,2.3-.79,4.15-2.36,5.55-1.58,1.4-3.71,2.1-6.4,2.1-1.67,0-3.2-.26-4.6-.77-1.4-.51-2.62-1.19-3.67-2.02-1.04-.83-1.92-1.71-2.63-2.63l3.35-3.35c.78.85,1.57,1.59,2.36,2.21Z"/><polygon class="cls-3" points="110.15 50.05 110.15 55.09 106.06 55.09 106.06 74.49 100.38 74.49 100.38 55.09 96.28 55.09 96.28 50.05 100.38 50.05 100.38 41.54 106.06 41.54 106.06 50.05 110.15 50.05"/><path class="cls-3" d="M130.08,51.32l-2.76,4.84c-.54-.43-1.03-.75-1.49-.96s-1.05-.32-1.76-.32c-.95,0-1.73.25-2.33.74-.61.5-1.04,1.18-1.31,2.05-.26.87-.39,1.89-.39,3.06v13.76h-5.69v-24.44h5.69v2.94c.57-.85,1.23-1.56,1.99-2.15,1.15-.88,2.34-1.33,3.58-1.33.89,0,1.72.14,2.5.4.78.27,1.44.74,1.97,1.41Z"/><path class="cls-3" d="M133.35,55.62c1.15-1.91,2.72-3.41,4.7-4.49,1.98-1.08,4.23-1.62,6.75-1.62s4.75.54,6.72,1.62c1.97,1.08,3.53,2.58,4.7,4.49,1.17,1.91,1.75,4.13,1.75,6.64s-.58,4.68-1.75,6.62-2.74,3.44-4.7,4.52c-1.97,1.08-4.21,1.62-6.72,1.62s-4.76-.54-6.75-1.62c-1.98-1.08-3.55-2.59-4.7-4.52s-1.73-4.14-1.73-6.62.58-4.73,1.73-6.64ZM138.48,66.28c.64,1.15,1.5,2.05,2.6,2.71,1.1.66,2.34.98,3.72.98s2.58-.33,3.69-.98c1.12-.66,1.99-1.56,2.63-2.71s.96-2.49.96-4.01-.32-2.87-.96-4.04-1.51-2.07-2.63-2.71c-1.12-.64-2.35-.96-3.69-.96s-2.62.32-3.72.96c-1.1.64-1.97,1.54-2.6,2.71s-.96,2.52-.96,4.04.32,2.86.96,4.01Z"/><path class="cls-3" d="M187.83,55.39c-1.09-1.9-2.55-3.35-4.35-4.36-1.81-1.01-3.78-1.52-5.9-1.52s-3.82.52-5.39,1.55c-1.18.76-2.16,1.76-2.95,3.01v-21.03h-5.79v41.45h5.79v-4.04c.79,1.25,1.77,2.26,2.95,3.03,1.57,1.03,3.37,1.54,5.39,1.54,2.12,0,4.09-.51,5.9-1.52,1.8-1,3.26-2.47,4.35-4.38,1.1-1.91,1.65-4.2,1.65-6.85s-.55-4.99-1.65-6.88ZM182.52,66.46c-.67,1.17-1.57,2.06-2.68,2.66-1.12.6-2.35.91-3.69.91-1.1,0-2.18-.31-3.25-.91-1.06-.6-1.94-1.48-2.63-2.63s-1.03-2.56-1.03-4.22.34-3.08,1.03-4.23c.69-1.15,1.57-2.02,2.63-2.63,1.07-.6,2.15-.9,3.25-.9,1.34,0,2.57.3,3.69.9,1.11.61,2.01,1.49,2.68,2.66.67,1.17,1.01,2.57,1.01,4.2s-.34,3.03-1.01,4.19Z"/><path class="cls-3" d="M216.87,55.28c-.97-1.86-2.36-3.29-4.17-4.28s-4-1.49-6.59-1.49-4.83.53-6.75,1.57c-1.91,1.05-3.39,2.53-4.43,4.44-1.05,1.91-1.57,4.16-1.57,6.75s.51,4.78,1.54,6.69c1.03,1.91,2.49,3.4,4.38,4.47,1.9,1.06,4.09,1.59,6.57,1.59,2.83,0,5.26-.55,7.28-1.65,2.02-1.1,3.66-2.74,4.94-4.94l-4.94-2.02c-.78,1.31-1.76,2.29-2.93,2.92-1.17.64-2.53.96-4.09.96s-2.75-.32-3.8-.96c-1.04-.63-1.83-1.56-2.36-2.79-.37-.85-.61-1.82-.72-2.94h19c.03-.15.06-.38.08-.69.01-.32.02-.63.02-.91,0-2.62-.48-4.86-1.46-6.72ZM200,57.59c.53-1.2,1.31-2.12,2.34-2.76,1.03-.64,2.27-.96,3.72-.96,1.2,0,2.26.27,3.16.8.9.53,1.61,1.27,2.13,2.23.42.8.68,1.72.75,2.76h-12.72c.14-.76.35-1.45.62-2.07Z"/><path class="cls-3" d="M229.81,33.04v41.45h-5.74v-41.45h5.74Z"/><path class="cls-3" d="M238.29,37.82c.73-.67,1.57-1.01,2.52-1.01,1.03,0,1.89.34,2.58,1.01.69.67,1.04,1.51,1.04,2.5s-.34,1.78-1.04,2.47c-.69.69-1.55,1.04-2.58,1.04-.96,0-1.8-.34-2.52-1.04-.73-.69-1.09-1.51-1.09-2.47s.36-1.82,1.09-2.5ZM243.63,50.04v24.44h-5.63v-24.44h5.63Z"/><path class="cls-3" d="M270.19,50.05v4.01c-.8-1.26-1.79-2.27-2.95-3.03-1.54-1.01-3.34-1.52-5.39-1.52s-4.05.5-5.87,1.49c-1.83.99-3.29,2.42-4.39,4.28-1.09,1.86-1.64,4.15-1.64,6.88s.55,4.92,1.64,6.8c1.1,1.88,2.56,3.31,4.39,4.31,1.82.99,3.78,1.48,5.87,1.48s3.85-.5,5.39-1.51c1.16-.76,2.15-1.77,2.95-3.03v3.75c0,1.84-.34,3.34-1.04,4.51-.69,1.17-1.58,2.04-2.68,2.61-1.1.56-2.25.85-3.45.85-1.35,0-2.54-.25-3.56-.75-1.03-.49-1.84-1.18-2.42-2.07-.58-.88-.89-1.88-.93-2.97h-5.68c.07,2.12.61,4,1.62,5.63,1.01,1.63,2.45,2.89,4.33,3.8,1.87.9,4.14,1.35,6.8,1.35,2.23,0,4.3-.47,6.21-1.41,1.92-.94,3.47-2.36,4.65-4.27,1.19-1.92,1.78-4.34,1.78-7.28v-23.91h-5.63ZM269.15,66.33c-.69,1.15-1.57,2.01-2.65,2.58-1.08.57-2.17.85-3.27.85-1.31,0-2.52-.29-3.64-.88-1.11-.58-2.01-1.44-2.68-2.57-.68-1.14-1.01-2.52-1.01-4.15s.33-3.06,1.01-4.2c.67-1.13,1.57-1.99,2.68-2.57,1.12-.59,2.33-.88,3.64-.88.81,0,1.64.16,2.47.48s1.59.8,2.26,1.46c.67.65,1.21,1.45,1.62,2.39.41.94.61,2.05.61,3.32,0,1.63-.34,3.02-1.04,4.17Z"/><path class="cls-3" d="M304.73,58.81v15.68h-5.79v-14.88c0-1.81-.37-3.17-1.09-4.09-.73-.92-1.89-1.38-3.48-1.38-1.07,0-2,.23-2.82.69-.81.46-1.45,1.1-1.91,1.91-.46.82-.69,1.77-.69,2.87v14.88h-5.74v-41.45h5.74v20.73c.68-1.23,1.57-2.24,2.68-3.03,1.29-.92,2.86-1.38,4.7-1.38s3.34.35,4.6,1.06c1.26.71,2.2,1.76,2.84,3.16.64,1.4.96,3.14.96,5.23Z"/><polygon class="cls-3" points="322.74 50.05 322.74 55.09 318.65 55.09 318.65 74.49 312.97 74.49 312.97 55.09 308.87 55.09 308.87 50.05 312.97 50.05 312.97 41.54 318.65 41.54 318.65 50.05 322.74 50.05"/></svg>